<svg width="1293" height="1118" viewBox="0 0 1293 1118" fill="none" xmlns="http://www.w3.org/2000/svg">
<g filter="url(#filter0_d_28_26)">
<path d="M1044 235.921C1014.11 274.761 1014.39 297.541 1030 344C1047.83 397.086 1141.92 427.506 1172.5 474.421C1227.47 558.757 1227.5 712.421 1227.5 712.421C1227.5 712.421 1356.54 350.081 1221.5 251.921C1161.5 208.311 1089.24 177.141 1044 235.921Z" fill="url(#paint0_linear_28_26)"/>
</g>
<g filter="url(#filter1_d_28_26)">
<path d="M1078 716.088C1077.47 680.432 1117.42 653.875 1152 662.588C1191.14 672.451 1190.96 723.24 1180 762.088C1162.81 823.006 1032 892.421 1032 892.421C1032 892.421 1104.2 798.538 1103.5 762.088C1103.1 741.552 1078.31 736.626 1078 716.088Z" fill="url(#paint1_linear_28_26)"/>
</g>
<g filter="url(#filter2_d_28_26)">
<path d="M846 106.921C873.733 100.832 883.665 135.592 912 137.421C917.066 137.748 919.959 136.816 925 137.421C953.746 140.871 990.3 170.705 973 193.921C958.766 213.023 934.604 201.441 912 193.921C871.535 180.458 804.346 116.065 846 106.921Z" fill="url(#paint2_linear_28_26)"/>
</g>
<g filter="url(#filter3_d_28_26)">
<circle cx="1015.5" cy="138.421" r="16.5" fill="#838EF4"/>
</g>
<g filter="url(#filter4_d_28_26)">
<circle cx="1125.5" cy="543.421" r="16.5" fill="#F483C7"/>
</g>
<g filter="url(#filter5_d_28_26)">
<circle cx="1092.5" cy="921.421" r="16.5" fill="#83E6F4"/>
</g>
<g filter="url(#filter6_d_28_26)">
<circle cx="968.5" cy="263.421" r="30.5" fill="#F4C083"/>
</g>
<g filter="url(#filter7_d_28_26)">
<path d="M925 53.9209C935.333 73.9209 941.3 103.921 938.5 117.921C935.7 131.921 923.266 96.9237 911 85.9209C903.848 79.5054 895.5 77.4207 895.5 77.4207C879.506 70.1396 862.552 78.0743 846.5 70.9209C823.404 60.6284 809.649 39.8293 814 14.9209C818.105 -8.57806 852.678 0.792505 875.5 8.66342C891.802 14.2855 920.96 46.1016 925 53.9209Z" fill="url(#paint3_linear_28_26)"/>
</g>
<g filter="url(#filter8_d_28_26)">
<path d="M976.458 844.692C996.258 833.981 1026.14 827.447 1040.19 829.981C1054.24 832.515 1019.49 845.611 1008.72 858.083C1002.44 865.355 1000.51 873.741 1000.51 873.741C993.536 889.871 1001.79 906.671 994.943 922.856C985.09 946.143 964.555 960.289 939.569 956.411C915.996 952.753 924.71 918.008 932.147 895.041C937.459 878.636 968.716 848.88 976.458 844.692Z" fill="url(#paint4_linear_28_26)"/>
</g>
<g filter="url(#filter9_d_28_26)">
<path d="M229.568 856.138C261.619 819.06 269.44 777.272 256.5 730C252.265 714.529 241.673 709.721 229.568 699C199.408 672.289 134.722 645.38 114.84 610.716C64.7512 523.389 73.464 369.973 73.464 369.973C73.464 369.973 -75.9772 724.388 53.265 830.069C110.685 877.021 181.061 912.25 229.568 856.138Z" fill="url(#paint5_linear_28_26)"/>
</g>
<g filter="url(#filter10_d_28_26)">
<path d="M222.93 374.813C221.432 410.441 180.035 434.683 146.007 424.018C107.488 411.944 110.555 361.248 123.711 323.086C144.341 263.245 278.884 201.382 278.884 201.382C278.884 201.382 201.457 291.007 200.087 327.437C199.315 347.962 223.792 354.291 222.93 374.813Z" fill="url(#paint6_linear_28_26)"/>
</g>
<g filter="url(#filter11_d_28_26)">
<path d="M419.91 996.189C391.875 1000.69 383.936 965.421 355.751 961.984C350.712 961.37 347.771 962.136 342.772 961.245C314.269 956.166 279.472 924.301 298.063 902.107C313.361 883.845 336.825 896.782 358.965 905.576C398.599 921.318 462.017 989.428 419.91 996.189Z" fill="url(#paint7_linear_28_26)"/>
</g>
<g filter="url(#filter12_d_28_26)">
<circle cx="252.476" cy="955.1" r="16.5" transform="rotate(-176.74 252.476 955.1)" fill="#838EF4"/>
</g>
<g filter="url(#filter13_d_28_26)">
<circle cx="165.687" cy="544.499" r="16.5" transform="rotate(-176.74 165.687 544.499)" fill="#F483C7"/>
</g>
<g filter="url(#filter14_d_28_26)">
<circle cx="220.131" cy="168.988" r="16.5" transform="rotate(-176.74 220.131 168.988)" fill="#83E6F4"/>
</g>
<g filter="url(#filter15_d_28_26)">
<circle cx="306.509" cy="832.975" r="30.5" transform="rotate(-176.74 306.509 832.975)" fill="#F4C083"/>
</g>
<g filter="url(#filter16_d_28_26)">
<path d="M338.024 1044.61C328.844 1024.05 324.594 993.764 328.185 979.945C331.777 966.127 342.201 1001.78 353.821 1013.46C360.596 1020.27 368.812 1022.83 368.812 1022.83C384.367 1031 401.744 1024.05 417.363 1032.1C439.837 1043.69 452.386 1065.24 446.626 1089.86C441.192 1113.09 407.207 1101.77 384.87 1092.61C368.914 1086.07 341.612 1052.65 338.024 1044.61Z" fill="url(#paint8_linear_28_26)"/>
</g>
<g filter="url(#filter17_d_28_26)">
<path d="M331.622 252.192C311.244 261.759 281.039 266.583 267.155 263.254C253.272 259.925 288.716 248.827 300.176 236.988C306.858 230.085 309.258 221.822 309.258 221.822C317.14 206.115 309.855 188.872 317.612 173.103C328.773 150.415 350.079 137.459 374.804 142.751C398.131 147.744 387.455 181.937 378.724 204.444C372.488 220.521 339.588 248.451 331.622 252.192Z" fill="url(#paint9_linear_28_26)"/>
</g>
<defs>
<filter id="filter0_d_28_26" x="1019.54" y="203.592" width="272.572" height="522.828" filterUnits="userSpaceOnUse" color-interpolation-filters="sRGB">
<feFlood flood-opacity="0" result="BackgroundImageFix"/>
<feColorMatrix in="SourceAlpha" type="matrix" values="0 0 0 0 0 0 0 0 0 0 0 0 0 0 0 0 0 0 127 0" result="hardAlpha"/>
<feOffset dx="5" dy="10"/>
<feGaussianBlur stdDeviation="2"/>
<feComposite in2="hardAlpha" operator="out"/>
<feColorMatrix type="matrix" values="0 0 0 0 0 0 0 0 0 0 0 0 0 0 0 0 0 0 0.25 0"/>
<feBlend mode="normal" in2="BackgroundImageFix" result="effect1_dropShadow_28_26"/>
<feBlend mode="normal" in="SourceGraphic" in2="effect1_dropShadow_28_26" result="shape"/>
</filter>
<filter id="filter1_d_28_26" x="1032" y="660.921" width="163.326" height="245.5" filterUnits="userSpaceOnUse" color-interpolation-filters="sRGB">
<feFlood flood-opacity="0" result="BackgroundImageFix"/>
<feColorMatrix in="SourceAlpha" type="matrix" values="0 0 0 0 0 0 0 0 0 0 0 0 0 0 0 0 0 0 127 0" result="hardAlpha"/>
<feOffset dx="5" dy="10"/>
<feGaussianBlur stdDeviation="2"/>
<feComposite in2="hardAlpha" operator="out"/>
<feColorMatrix type="matrix" values="0 0 0 0 0 0 0 0 0 0 0 0 0 0 0 0 0 0 0.25 0"/>
<feBlend mode="normal" in2="BackgroundImageFix" result="effect1_dropShadow_28_26"/>
<feBlend mode="normal" in="SourceGraphic" in2="effect1_dropShadow_28_26" result="shape"/>
</filter>
<filter id="filter2_d_28_26" x="832.868" y="106.206" width="153.599" height="112.133" filterUnits="userSpaceOnUse" color-interpolation-filters="sRGB">
<feFlood flood-opacity="0" result="BackgroundImageFix"/>
<feColorMatrix in="SourceAlpha" type="matrix" values="0 0 0 0 0 0 0 0 0 0 0 0 0 0 0 0 0 0 127 0" result="hardAlpha"/>
<feOffset dx="5" dy="10"/>
<feGaussianBlur stdDeviation="2"/>
<feComposite in2="hardAlpha" operator="out"/>
<feColorMatrix type="matrix" values="0 0 0 0 0 0 0 0 0 0 0 0 0 0 0 0 0 0 0.25 0"/>
<feBlend mode="normal" in2="BackgroundImageFix" result="effect1_dropShadow_28_26"/>
<feBlend mode="normal" in="SourceGraphic" in2="effect1_dropShadow_28_26" result="shape"/>
</filter>
<filter id="filter3_d_28_26" x="995" y="121.921" width="41" height="41" filterUnits="userSpaceOnUse" color-interpolation-filters="sRGB">
<feFlood flood-opacity="0" result="BackgroundImageFix"/>
<feColorMatrix in="SourceAlpha" type="matrix" values="0 0 0 0 0 0 0 0 0 0 0 0 0 0 0 0 0 0 127 0" result="hardAlpha"/>
<feOffset dy="4"/>
<feGaussianBlur stdDeviation="2"/>
<feComposite in2="hardAlpha" operator="out"/>
<feColorMatrix type="matrix" values="0 0 0 0 0 0 0 0 0 0 0 0 0 0 0 0 0 0 0.25 0"/>
<feBlend mode="normal" in2="BackgroundImageFix" result="effect1_dropShadow_28_26"/>
<feBlend mode="normal" in="SourceGraphic" in2="effect1_dropShadow_28_26" result="shape"/>
</filter>
<filter id="filter4_d_28_26" x="1109" y="526.921" width="42" height="47" filterUnits="userSpaceOnUse" color-interpolation-filters="sRGB">
<feFlood flood-opacity="0" result="BackgroundImageFix"/>
<feColorMatrix in="SourceAlpha" type="matrix" values="0 0 0 0 0 0 0 0 0 0 0 0 0 0 0 0 0 0 127 0" result="hardAlpha"/>
<feOffset dx="5" dy="10"/>
<feGaussianBlur stdDeviation="2"/>
<feComposite in2="hardAlpha" operator="out"/>
<feColorMatrix type="matrix" values="0 0 0 0 0 0 0 0 0 0 0 0 0 0 0 0 0 0 0.25 0"/>
<feBlend mode="normal" in2="BackgroundImageFix" result="effect1_dropShadow_28_26"/>
<feBlend mode="normal" in="SourceGraphic" in2="effect1_dropShadow_28_26" result="shape"/>
</filter>
<filter id="filter5_d_28_26" x="1076" y="904.921" width="42" height="47" filterUnits="userSpaceOnUse" color-interpolation-filters="sRGB">
<feFlood flood-opacity="0" result="BackgroundImageFix"/>
<feColorMatrix in="SourceAlpha" type="matrix" values="0 0 0 0 0 0 0 0 0 0 0 0 0 0 0 0 0 0 127 0" result="hardAlpha"/>
<feOffset dx="5" dy="10"/>
<feGaussianBlur stdDeviation="2"/>
<feComposite in2="hardAlpha" operator="out"/>
<feColorMatrix type="matrix" values="0 0 0 0 0 0 0 0 0 0 0 0 0 0 0 0 0 0 0.25 0"/>
<feBlend mode="normal" in2="BackgroundImageFix" result="effect1_dropShadow_28_26"/>
<feBlend mode="normal" in="SourceGraphic" in2="effect1_dropShadow_28_26" result="shape"/>
</filter>
<filter id="filter6_d_28_26" x="938" y="232.921" width="70" height="75" filterUnits="userSpaceOnUse" color-interpolation-filters="sRGB">
<feFlood flood-opacity="0" result="BackgroundImageFix"/>
<feColorMatrix in="SourceAlpha" type="matrix" values="0 0 0 0 0 0 0 0 0 0 0 0 0 0 0 0 0 0 127 0" result="hardAlpha"/>
<feOffset dx="5" dy="10"/>
<feGaussianBlur stdDeviation="2"/>
<feComposite in2="hardAlpha" operator="out"/>
<feColorMatrix type="matrix" values="0 0 0 0 0 0 0 0 0 0 0 0 0 0 0 0 0 0 0.25 0"/>
<feBlend mode="normal" in2="BackgroundImageFix" result="effect1_dropShadow_28_26"/>
<feBlend mode="normal" in="SourceGraphic" in2="effect1_dropShadow_28_26" result="shape"/>
</filter>
<filter id="filter7_d_28_26" x="813.2" y="0" width="134.99" height="135.178" filterUnits="userSpaceOnUse" color-interpolation-filters="sRGB">
<feFlood flood-opacity="0" result="BackgroundImageFix"/>
<feColorMatrix in="SourceAlpha" type="matrix" values="0 0 0 0 0 0 0 0 0 0 0 0 0 0 0 0 0 0 127 0" result="hardAlpha"/>
<feOffset dx="5" dy="10"/>
<feGaussianBlur stdDeviation="2"/>
<feComposite in2="hardAlpha" operator="out"/>
<feColorMatrix type="matrix" values="0 0 0 0 0 0 0 0 0 0 0 0 0 0 0 0 0 0 0.25 0"/>
<feBlend mode="normal" in2="BackgroundImageFix" result="effect1_dropShadow_28_26"/>
<feBlend mode="normal" in="SourceGraphic" in2="effect1_dropShadow_28_26" result="shape"/>
</filter>
<filter id="filter8_d_28_26" x="924.224" y="829.436" width="128.262" height="141.613" filterUnits="userSpaceOnUse" color-interpolation-filters="sRGB">
<feFlood flood-opacity="0" result="BackgroundImageFix"/>
<feColorMatrix in="SourceAlpha" type="matrix" values="0 0 0 0 0 0 0 0 0 0 0 0 0 0 0 0 0 0 127 0" result="hardAlpha"/>
<feOffset dx="5" dy="10"/>
<feGaussianBlur stdDeviation="2"/>
<feComposite in2="hardAlpha" operator="out"/>
<feColorMatrix type="matrix" values="0 0 0 0 0 0 0 0 0 0 0 0 0 0 0 0 0 0 0.25 0"/>
<feBlend mode="normal" in2="BackgroundImageFix" result="effect1_dropShadow_28_26"/>
<feBlend mode="normal" in="SourceGraphic" in2="effect1_dropShadow_28_26" result="shape"/>
</filter>
<filter id="filter9_d_28_26" x="0.630615" y="369.973" width="270.817" height="528.972" filterUnits="userSpaceOnUse" color-interpolation-filters="sRGB">
<feFlood flood-opacity="0" result="BackgroundImageFix"/>
<feColorMatrix in="SourceAlpha" type="matrix" values="0 0 0 0 0 0 0 0 0 0 0 0 0 0 0 0 0 0 127 0" result="hardAlpha"/>
<feOffset dx="5" dy="10"/>
<feGaussianBlur stdDeviation="2"/>
<feComposite in2="hardAlpha" operator="out"/>
<feColorMatrix type="matrix" values="0 0 0 0 0 0 0 0 0 0 0 0 0 0 0 0 0 0 0.25 0"/>
<feBlend mode="normal" in2="BackgroundImageFix" result="effect1_dropShadow_28_26"/>
<feBlend mode="normal" in="SourceGraphic" in2="effect1_dropShadow_28_26" result="shape"/>
</filter>
<filter id="filter10_d_28_26" x="114.782" y="201.382" width="173.101" height="239.171" filterUnits="userSpaceOnUse" color-interpolation-filters="sRGB">
<feFlood flood-opacity="0" result="BackgroundImageFix"/>
<feColorMatrix in="SourceAlpha" type="matrix" values="0 0 0 0 0 0 0 0 0 0 0 0 0 0 0 0 0 0 127 0" result="hardAlpha"/>
<feOffset dx="5" dy="10"/>
<feGaussianBlur stdDeviation="2"/>
<feComposite in2="hardAlpha" operator="out"/>
<feColorMatrix type="matrix" values="0 0 0 0 0 0 0 0 0 0 0 0 0 0 0 0 0 0 0.25 0"/>
<feBlend mode="normal" in2="BackgroundImageFix" result="effect1_dropShadow_28_26"/>
<feBlend mode="normal" in="SourceGraphic" in2="effect1_dropShadow_28_26" result="shape"/>
</filter>
<filter id="filter11_d_28_26" x="292.835" y="892.859" width="149.957" height="117.725" filterUnits="userSpaceOnUse" color-interpolation-filters="sRGB">
<feFlood flood-opacity="0" result="BackgroundImageFix"/>
<feColorMatrix in="SourceAlpha" type="matrix" values="0 0 0 0 0 0 0 0 0 0 0 0 0 0 0 0 0 0 127 0" result="hardAlpha"/>
<feOffset dx="5" dy="10"/>
<feGaussianBlur stdDeviation="2"/>
<feComposite in2="hardAlpha" operator="out"/>
<feColorMatrix type="matrix" values="0 0 0 0 0 0 0 0 0 0 0 0 0 0 0 0 0 0 0.25 0"/>
<feBlend mode="normal" in2="BackgroundImageFix" result="effect1_dropShadow_28_26"/>
<feBlend mode="normal" in="SourceGraphic" in2="effect1_dropShadow_28_26" result="shape"/>
</filter>
<filter id="filter12_d_28_26" x="231.975" y="938.599" width="41.001" height="41.001" filterUnits="userSpaceOnUse" color-interpolation-filters="sRGB">
<feFlood flood-opacity="0" result="BackgroundImageFix"/>
<feColorMatrix in="SourceAlpha" type="matrix" values="0 0 0 0 0 0 0 0 0 0 0 0 0 0 0 0 0 0 127 0" result="hardAlpha"/>
<feOffset dy="4"/>
<feGaussianBlur stdDeviation="2"/>
<feComposite in2="hardAlpha" operator="out"/>
<feColorMatrix type="matrix" values="0 0 0 0 0 0 0 0 0 0 0 0 0 0 0 0 0 0 0.25 0"/>
<feBlend mode="normal" in2="BackgroundImageFix" result="effect1_dropShadow_28_26"/>
<feBlend mode="normal" in="SourceGraphic" in2="effect1_dropShadow_28_26" result="shape"/>
</filter>
<filter id="filter13_d_28_26" x="149.186" y="527.999" width="42.001" height="47.001" filterUnits="userSpaceOnUse" color-interpolation-filters="sRGB">
<feFlood flood-opacity="0" result="BackgroundImageFix"/>
<feColorMatrix in="SourceAlpha" type="matrix" values="0 0 0 0 0 0 0 0 0 0 0 0 0 0 0 0 0 0 127 0" result="hardAlpha"/>
<feOffset dx="5" dy="10"/>
<feGaussianBlur stdDeviation="2"/>
<feComposite in2="hardAlpha" operator="out"/>
<feColorMatrix type="matrix" values="0 0 0 0 0 0 0 0 0 0 0 0 0 0 0 0 0 0 0.25 0"/>
<feBlend mode="normal" in2="BackgroundImageFix" result="effect1_dropShadow_28_26"/>
<feBlend mode="normal" in="SourceGraphic" in2="effect1_dropShadow_28_26" result="shape"/>
</filter>
<filter id="filter14_d_28_26" x="203.63" y="152.487" width="42.001" height="47.001" filterUnits="userSpaceOnUse" color-interpolation-filters="sRGB">
<feFlood flood-opacity="0" result="BackgroundImageFix"/>
<feColorMatrix in="SourceAlpha" type="matrix" values="0 0 0 0 0 0 0 0 0 0 0 0 0 0 0 0 0 0 127 0" result="hardAlpha"/>
<feOffset dx="5" dy="10"/>
<feGaussianBlur stdDeviation="2"/>
<feComposite in2="hardAlpha" operator="out"/>
<feColorMatrix type="matrix" values="0 0 0 0 0 0 0 0 0 0 0 0 0 0 0 0 0 0 0.25 0"/>
<feBlend mode="normal" in2="BackgroundImageFix" result="effect1_dropShadow_28_26"/>
<feBlend mode="normal" in="SourceGraphic" in2="effect1_dropShadow_28_26" result="shape"/>
</filter>
<filter id="filter15_d_28_26" x="276.008" y="802.474" width="70.0017" height="75.0017" filterUnits="userSpaceOnUse" color-interpolation-filters="sRGB">
<feFlood flood-opacity="0" result="BackgroundImageFix"/>
<feColorMatrix in="SourceAlpha" type="matrix" values="0 0 0 0 0 0 0 0 0 0 0 0 0 0 0 0 0 0 127 0" result="hardAlpha"/>
<feOffset dx="5" dy="10"/>
<feGaussianBlur stdDeviation="2"/>
<feComposite in2="hardAlpha" operator="out"/>
<feColorMatrix type="matrix" values="0 0 0 0 0 0 0 0 0 0 0 0 0 0 0 0 0 0 0.25 0"/>
<feBlend mode="normal" in2="BackgroundImageFix" result="effect1_dropShadow_28_26"/>
<feBlend mode="normal" in="SourceGraphic" in2="effect1_dropShadow_28_26" result="shape"/>
</filter>
<filter id="filter16_d_28_26" x="326.914" y="976.811" width="130.105" height="140.771" filterUnits="userSpaceOnUse" color-interpolation-filters="sRGB">
<feFlood flood-opacity="0" result="BackgroundImageFix"/>
<feColorMatrix in="SourceAlpha" type="matrix" values="0 0 0 0 0 0 0 0 0 0 0 0 0 0 0 0 0 0 127 0" result="hardAlpha"/>
<feOffset dx="5" dy="10"/>
<feGaussianBlur stdDeviation="2"/>
<feComposite in2="hardAlpha" operator="out"/>
<feColorMatrix type="matrix" values="0 0 0 0 0 0 0 0 0 0 0 0 0 0 0 0 0 0 0.25 0"/>
<feBlend mode="normal" in2="BackgroundImageFix" result="effect1_dropShadow_28_26"/>
<feBlend mode="normal" in="SourceGraphic" in2="effect1_dropShadow_28_26" result="shape"/>
</filter>
<filter id="filter17_d_28_26" x="263.979" y="141.573" width="133.935" height="136.732" filterUnits="userSpaceOnUse" color-interpolation-filters="sRGB">
<feFlood flood-opacity="0" result="BackgroundImageFix"/>
<feColorMatrix in="SourceAlpha" type="matrix" values="0 0 0 0 0 0 0 0 0 0 0 0 0 0 0 0 0 0 127 0" result="hardAlpha"/>
<feOffset dx="5" dy="10"/>
<feGaussianBlur stdDeviation="2"/>
<feComposite in2="hardAlpha" operator="out"/>
<feColorMatrix type="matrix" values="0 0 0 0 0 0 0 0 0 0 0 0 0 0 0 0 0 0 0.25 0"/>
<feBlend mode="normal" in2="BackgroundImageFix" result="effect1_dropShadow_28_26"/>
<feBlend mode="normal" in="SourceGraphic" in2="effect1_dropShadow_28_26" result="shape"/>
</filter>
<linearGradient id="paint0_linear_28_26" x1="1157.03" y1="212.3" x2="1157.03" y2="712.421" gradientUnits="userSpaceOnUse">
<stop stop-color="#9982DC"/>
<stop offset="1" stop-color="#3632F1"/>
</linearGradient>
<linearGradient id="paint1_linear_28_26" x1="1106.66" y1="660.921" x2="1106.66" y2="815.873" gradientUnits="userSpaceOnUse">
<stop stop-color="#FD7676"/>
<stop offset="1" stop-color="#FFCD4B"/>
</linearGradient>
<linearGradient id="paint2_linear_28_26" x1="905.167" y1="106.206" x2="905.167" y2="204.339" gradientUnits="userSpaceOnUse">
<stop stop-color="#FF6B6B"/>
<stop offset="1" stop-color="#9760C2"/>
</linearGradient>
<linearGradient id="paint3_linear_28_26" x1="875.983" y1="-0.395508" x2="875.983" y2="121.178" gradientUnits="userSpaceOnUse">
<stop stop-color="#4426BD"/>
<stop offset="1" stop-color="#70A0FF"/>
</linearGradient>
<linearGradient id="paint4_linear_28_26" x1="923.08" y1="894.73" x2="1044.63" y2="892.425" gradientUnits="userSpaceOnUse">
<stop stop-color="#71AAFF"/>
<stop offset="1" stop-color="#4200FF"/>
</linearGradient>
<linearGradient id="paint5_linear_28_26" x1="115.379" y1="873.291" x2="143.821" y2="373.98" gradientUnits="userSpaceOnUse">
<stop stop-color="#9982DC"/>
<stop offset="1" stop-color="#3632F1"/>
</linearGradient>
<linearGradient id="paint6_linear_28_26" x1="191.176" y1="428.261" x2="199.988" y2="273.559" gradientUnits="userSpaceOnUse">
<stop stop-color="#FD7676"/>
<stop offset="1" stop-color="#FFCD4B"/>
</linearGradient>
<linearGradient id="paint7_linear_28_26" x1="360.798" y1="993.537" x2="366.379" y2="895.563" gradientUnits="userSpaceOnUse">
<stop stop-color="#FF6B6B"/>
<stop offset="1" stop-color="#9760C2"/>
</linearGradient>
<linearGradient id="paint8_linear_28_26" x1="383.872" y1="1101.63" x2="390.786" y2="980.249" gradientUnits="userSpaceOnUse">
<stop stop-color="#4426BD"/>
<stop offset="1" stop-color="#70A0FF"/>
</linearGradient>
<linearGradient id="paint9_linear_28_26" x1="387.758" y1="205.271" x2="266.273" y2="200.659" gradientUnits="userSpaceOnUse">
<stop stop-color="#71AAFF"/>
<stop offset="1" stop-color="#4200FF"/>
</linearGradient>
</defs>
</svg>
